<svg xmlns="http://www.w3.org/2000/svg" version="1.1" xmlns:xlink="http://www.w3.org/1999/xlink" xmlns:svgjs="http://svgjs.dev/svgjs" viewBox="0 0 1422 800"><defs><filter id="uuunion-blur" x="-100%" y="-100%" width="400%" height="400%" color-interpolation-filters="sRGB">
        <feGaussianBlur in="SourceGraphic" stdDeviation="0 22" result="blur"></feGaussianBlur>
        <feDropShadow stdDeviation="80" in="blur" dx="65" dy="65" flood-color="hsl(0, 0%, 80%)" flood-opacity="0" x="0%" y="0%" width="100%" height="100%"></feDropShadow>
      </filter><filter id="uuunion-blur2" x="-100%" y="-100%" width="400%" height="400%" color-interpolation-filters="sRGB">
        <feGaussianBlur in="SourceGraphic" stdDeviation="0 22" result="blur"></feGaussianBlur>
        <feDropShadow stdDeviation="80" in="blur" dx="-65" dy="-65" flood-color="hsl(0, 0%, 80%)" flood-opacity="0" x="0%" y="0%" width="100%" height="100%"></feDropShadow>
      </filter><linearGradient gradientTransform="rotate(0, 0.5, 0.5)" x1="50%" y1="0%" x2="50%" y2="100%" id="uuunion-grad"><stop stop-color="hsl(0, 0%, 29%)" offset="10%"></stop><stop stop-color="hsl(0, 0%, 80%)" offset="90%"></stop></linearGradient><linearGradient gradientTransform="rotate(123, 0.5, 0.5)" x1="50%" y1="0%" x2="50%" y2="100%" id="uuunion-grad2"><stop stop-color="hsl(0, 0%, 29%)" offset="25%"></stop><stop stop-color="hsl(0, 0%, 80%)" offset="100%"></stop></linearGradient><linearGradient gradientTransform="rotate(360, 0.5, 0.5)" x1="50%" y1="0%" x2="50%" y2="100%" id="uuunion-grad3"><stop stop-color="hsl(0, 0%, 29%)" offset="0%"></stop><stop stop-color="hsl(0, 0%, 80%)" offset="75%"></stop></linearGradient></defs><path d="M-123.34 -85.82Q-110.59 -84.64 -97.84 -83.21 -85.09 -81.6 -72.34 -79.91 -59.6 -78.22 -46.85 -76.63 -34.1 -75.22 -21.35 -74.07 -8.6 -73.24 4.13 -72.78 16.88 -72.72 29.63 -73.05 42.38 -73.76 55.13 -74.8 67.87 -76.13 80.62 -77.68 93.37 -79.34 106.12 -81.05 118.87 -82.69 131.62 -84.19 144.36 -85.46 157.11 -86.43 169.86 -87.06 182.61 -87.29 195.36 -87.13 208.1 -86.58 220.85 -85.68 233.6 -84.46 246.35 -83 259.1 -81.38 271.84 -79.68 284.59 -78 297.34 -76.42 310.09 -75.05 322.84 -73.94 335.58 -73.16 348.33 -72.75 361.08 -72.74 373.83 -73.12 386.58 -73.88 399.32 -74.97 412.07 -76.33 424.82 -77.9 437.57 -79.57 450.32 -81.27 463.06 -82.9 475.81 -84.38 488.56 -85.61 501.31 -86.54 514.06 -87.11 526.81 -87.29 539.55 -87.08 552.3 -86.48 565.05 -85.53 577.8 -84.28 590.55 -82.79 603.29 -81.15 616.04 -79.45 628.79 -77.78 641.54 -76.23 654.29 -74.88 667.03 -73.81 679.78 -73.08 692.53 -72.73 705.28 -72.77 718.03 -73.2 730.77 -74.01 743.52 -75.14 756.27 -76.53 769.02 -78.12 781.77 -79.8 794.52 -81.5 807.26 -83.11 820.01 -84.56 832.76 -85.75 845.51 -86.64 858.26 -87.16 871 -87.29 883.75 -87.02 896.5 -86.37 909.25 -85.38 922 -84.09 934.74 -82.58 947.49 -80.92 960.24 -79.22 972.99 -77.56 985.74 -76.03 998.49 -74.72 1011.23 -73.69 1023.98 -73.01 1036.73 -72.71 1049.48 -72.8 1062.23 -73.29 1074.97 -74.14 1087.72 -75.31 1100.47 -76.74 1113.22 -78.34 1125.97 -80.03 1138.71 -81.72 1151.46 -83.32 1164.21 -84.74 1176.96 -85.89 1189.71 -86.73 1202.46 -87.2 1215.2 -87.28 1227.95 -86.96 1240.7 -86.26 1253.45 -85.22 1266.2 -83.89 1278.94 -82.36 1291.69 -80.69 1304.44 -78.99 1317.19 -77.34 1329.94 -75.84 1342.69 -74.56 1355.43 -73.58 1368.18 -72.95 1380.93 -72.7 1393.68 -72.85 1406.43 -73.39 1419.17 -74.28 1431.92 -75.49 1444.67 -76.95 1457.42 -78.57 1470.17 -80.26 1482.92 -81.95 1495.66 -83.52 1508.41 -84.91 1513.49 -70.25 1521.71 -55.59 1532.58 -40.93 1545.42 -26.27 1559.42 -11.61 1573.72 3.04 1587.42 17.69 1599.69 32.35 1609.74 47.01 1616.97 61.67 1620.91 76.33 1621.33 90.99 1618.19 105.65 1611.7 120.31 1602.25 134.97 1590.44 149.63 1577 164.29 1562.76 178.95 1548.61 193.6 1535.42 208.26 1524.03 222.92 1515.14 237.58 1509.29 252.24 1506.86 266.9 1507.99 281.56 1512.62 296.22 1520.46 310.88 1531.01 325.54 1543.63 340.2 1557.52 354.86 1571.83 369.51 1585.67 384.17 1598.17 398.83 1608.56 413.49 1616.19 428.15 1620.59 442.81 1621.48 457.47 1618.81 472.13 1612.74 486.79 1603.66 501.45 1592.12 516.11 1578.85 530.77 1564.66 545.43 1550.45 560.08 1537.09 574.74 1525.41 589.4 1516.15 604.06 1509.88 618.72 1506.98 633.38 1507.64 648.04 1511.81 662.7 1519.25 677.36 1529.47 692.02 1541.86 706.68 1555.63 721.34 1569.94 735.99 1583.89 750.65 1596.62 765.31 1607.33 779.97 1615.35 794.63 1620.2 809.29 1621.56 823.95 1619.36 838.61 1613.73 853.27 1599.88 860.8 1586.03 869.37 1572.18 878.53 1558.33 887.76 1544.48 896.58 1530.64 904.48 1516.79 911.06 1502.94 915.94 1489.09 918.87 1475.24 919.68 1461.39 918.33 1447.54 914.89 1433.69 909.55 1419.84 902.6 1405.99 894.42 1392.15 885.46 1378.3 876.2 1364.45 867.14 1350.6 858.79 1336.75 851.59 1322.9 845.93 1309.05 842.13 1295.2 840.4 1281.35 840.82 1267.5 843.37 1253.66 847.92 1239.81 854.21 1225.96 861.91 1212.11 870.59 1198.26 879.78 1184.41 888.99 1170.56 897.71 1156.71 905.46 1142.86 911.82 1129.02 916.46 1115.17 919.1 1101.32 919.62 1087.47 917.98 1073.62 914.27 1059.77 908.7 1045.92 901.56 1032.07 893.25 1018.22 884.21 1004.37 874.95 990.53 865.96 976.68 857.74 962.83 850.72 948.98 845.31 935.13 841.78 921.28 840.33 907.43 841.04 893.58 843.87 879.73 848.67 865.89 855.18 852.04 863.03 838.19 871.81 824.34 881.04 810.49 890.21 796.64 898.82 782.79 906.41 768.94 912.56 755.09 916.93 741.24 919.3 727.4 919.52 713.55 917.6 699.7 913.62 685.85 907.82 672 900.5 658.15 892.06 644.3 882.96 630.45 873.71 616.6 864.8 602.76 856.71 588.91 849.89 575.06 844.71 561.21 841.46 547.36 840.3 533.51 841.3 519.66 844.41 505.81 849.46 491.96 856.17 478.12 864.17 464.27 873.04 450.42 882.29 436.57 891.41 422.72 899.91 408.87 907.33 395.02 913.26 381.17 917.38 367.32 919.46 353.48 919.39 339.63 917.18 325.78 912.94 311.93 906.91 298.08 899.41 284.23 890.86 270.38 881.71 256.53 872.47 242.68 863.65 228.84 855.71 214.99 849.09 201.14 844.16 187.29 841.17 173.44 840.31 159.59 841.6 145.74 844.98 131.89 850.27 118.04 857.18 104.2 865.33 90.35 874.28 76.5 883.54 62.65 892.61 48.8 900.99 34.95 908.23 21.1 913.93 7.25 917.78 -6.59 919.57 -20.43 919.21 -34.28 916.72 -48.13 912.22 -61.98 905.97 -75.83 898.31 -89.68 889.65 -103.53 880.46 -117.38 871.25 -131.23 862.51 -145.07 854.73 -158.92 848.32 -160.83 833.72 -161.57 819.13 -161.11 804.53 -159.47 789.93 -156.76 775.34 -153.14 760.74 -148.84 746.15 -144.13 731.55 -139.29 716.95 -134.64 702.36 -130.45 687.76 -127 673.17 -124.49 658.57 -123.07 643.97 -122.85 629.38 -123.83 614.78 -125.95 600.19 -129.08 585.59 -133.03 570.99 -137.54 556.4 -142.34 541.8 -147.14 527.21 -151.62 512.61 -155.52 498.01 -158.59 483.42 -160.64 468.82 -161.54 454.23 -161.24 439.63 -159.75 425.03 -157.18 410.44 -153.67 395.84 -149.44 381.24 -144.77 366.65 -139.93 352.05 -135.23 337.46 -130.97 322.86 -127.41 308.26 -124.76 293.67 -123.19 279.07 -122.81 264.48 -123.63 249.88 -125.61 235.28 -128.61 220.69 -132.46 206.09 -136.92 191.5 -141.7 176.9 -146.51 162.3 -151.05 147.71 -155.04 133.11 -158.24 118.52 -160.43 103.92 -161.49 89.32 -161.35 74.73 -160.02 60.13 -157.58 45.54 -154.18 30.94 -150.03 16.34 -145.4 1.75 -140.57 -12.84 -135.84 -27.44 -131.5 -42.03 -127.83 -56.63 -125.05 -71.22 -123.34 -85.82" fill="url(#uuunion-grad)"></path><path d="M-123.35 -85.82Q-125.06 -71.22 -127.84 -56.63 -131.51 -42.03 -135.85 -27.44 -140.58 -12.84 -145.41 1.75 -150.04 16.34 -154.19 30.94 -157.59 45.53 -160.03 60.13 -161.36 74.73 -161.5 89.32 -160.44 103.92 -158.25 118.51 -155.05 133.11 -151.06 147.71 -146.52 162.3 -141.71 176.9 -136.93 191.49 -132.47 206.09 -128.62 220.69 -125.62 235.28 -123.64 249.88 -122.82 264.47 -123.2 279.07 -124.77 293.67 -127.42 308.26 -130.98 322.86 -135.24 337.45 -139.94 352.05 -144.78 366.65 -149.45 381.24 -140.41 383.67 -131.38 386.49 -122.34 389.64 -113.3 393.04 -104.27 396.61 -95.23 400.27 -86.19 403.91 -77.15 407.46 -68.12 410.83 -59.08 413.94 -50.04 416.71 -41.01 419.07 -31.97 420.97 -22.93 422.36 -5.85 423.42 -2.83 423.48 9.04 419.65 20.89 414.97 32.7 409.5 44.46 403.35 56.18 396.63 67.84 389.47 79.46 382.05 91.03 374.52 102.55 367.04 114.01 359.79 125.41 352.91 136.76 346.55 148.06 340.82 159.3 335.81 170.49 331.59 181.62 328.18 192.7 325.6 203.73 323.82 214.71 322.77 225.65 322.38 236.53 322.52 247.38 323.08 258.18 323.91 268.94 324.86 279.67 325.77 290.36 326.5 301.03 326.89 311.67 326.83 322.28 326.19 332.88 324.9 343.47 322.89 354.04 320.12 364.61 316.59 375.17 312.32 385.74 307.36 396.31 301.8 406.89 295.72 417.49 289.25 428.1 282.51 438.73 275.65 449.39 268.8 460.08 262.11 470.8 255.71 481.56 249.72 492.36 244.23 503.2 239.35 514.1 235.12 525.04 231.58 536.03 228.74 547.08 226.57 558.18 225.04 569.35 224.08 580.57 223.6 591.86 223.49 603.22 223.64 614.63 223.91 626.12 224.19 637.67 224.34 649.29 224.24 660.97 223.78 672.72 222.86 684.54 221.41 696.42 219.37 708.36 216.7 720.36 213.4 732.42 209.48 744.54 204.97 756.71 199.95 768.93 194.48 781.21 188.66 793.52 182.6 805.88 176.41 818.27 170.2 830.69 164.1 843.15 158.22 855.62 152.64 868.12 147.48 880.63 142.78 893.15 138.62 905.67 135.01 918.19 131.98 930.7 129.5 943.19 127.55 955.67 126.07 968.13 125 980.55 124.25 992.93 123.73 1005.28 123.34 1017.58 122.97 1029.82 122.52 1042 121.88 1054.12 120.98 1066.17 119.72 1078.15 118.04 1090.04 115.89 1101.85 113.26 1113.57 110.11 1125.2 106.47 1136.72 102.36 1148.15 97.82 1159.47 92.92 1170.68 87.72 1181.78 82.32 1192.76 76.79 1203.63 71.24 1214.38 65.75 1225.01 60.42 1235.52 55.32 1245.9 50.52 1256.17 46.08 1266.31 42.05 1276.33 38.45 1286.22 35.3 1296 32.57 1305.66 30.27 1315.2 28.33 1324.63 26.72 1333.95 25.36 1343.16 24.2 1352.27 23.14 1361.27 22.12 1370.19 21.04 1379.01 19.84 1387.75 18.44 1396.42 16.78 1405.01 14.82 1413.53 12.5 1422 9.82 1407.33 -8.25 1393.91 -26.33 1382.85 -44.41 1375.11 -62.49 1371.32 -80.57 1371.82 -98.65 1376.55 -116.73 1385.12 -134.81 1373.21 -135.14 1361.3 -135.69 1349.39 -136.45 1337.47 -137.37 1325.56 -138.41 1313.65 -139.52 1301.74 -140.66 1289.83 -141.77 1277.91 -142.79 1266 -143.68 1254.09 -144.41 1242.18 -144.92 1230.27 -145.21 1218.36 -145.26 1206.44 -145.06 1194.53 -144.62 1182.62 -143.97 1170.71 -143.14 1158.8 -142.16 1146.88 -141.08 1134.97 -139.95 1123.06 -138.82 1111.15 -137.74 1099.24 -136.77 1087.32 -135.95 1075.41 -135.32 1063.5 -134.9 1051.59 -134.73 1039.68 -134.79 1027.77 -135.1 1015.85 -135.64 1003.94 -136.38 992.03 -137.28 980.12 -138.31 968.21 -139.42 956.29 -140.56 944.38 -141.67 932.47 -142.71 920.56 -143.61 908.65 -144.35 896.73 -144.89 884.82 -145.2 872.91 -145.26 861 -145.09 849.09 -144.67 837.18 -144.04 825.26 -143.22 813.35 -142.25 801.44 -141.18 789.53 -140.05 777.62 -138.91 765.7 -137.83 753.79 -136.85 741.88 -136.02 729.97 -135.37 718.06 -134.93 706.14 -134.73 694.23 -134.78 682.32 -135.06 670.41 -135.58 658.5 -136.3 646.59 -137.2 634.67 -138.22 622.76 -139.33 610.85 -140.46 598.94 -141.58 587.03 -142.62 575.11 -143.54 563.2 -144.29 551.29 -144.85 539.38 -145.18 527.47 -145.27 515.56 -145.11 503.64 -144.72 491.73 -144.1 479.82 -143.3 467.91 -142.34 456 -141.27 444.08 -140.15 432.17 -139.01 420.26 -137.92 408.35 -136.93 396.44 -136.08 384.52 -135.42 372.61 -134.96 360.7 -134.74 348.79 -134.76 336.88 -135.03 324.97 -135.53 313.05 -136.23 301.14 -137.11 289.23 -138.13 277.32 -139.23 265.41 -140.36 253.49 -141.48 241.58 -142.53 229.67 -143.46 217.76 -144.24 205.85 -144.81 193.93 -145.16 182.02 -145.27 170.11 -145.13 158.2 -144.76 146.29 -144.17 134.38 -143.38 122.46 -142.43 110.55 -141.37 98.64 -140.25 86.73 -139.11 74.82 -138.02 62.9 -137.01 50.99 -136.15 39.08 -135.47 27.17 -134.99 15.26 -134.75 3.34 -134.75 -8.56 -135 -20.47 -135.48 -32.38 -136.16 -44.29 -137.03 -56.2 -138.03 -68.12 -139.13 -80.03 -140.26 -91.94 -141.39 -103.85 -142.44 -115.76 -143.39 -130.74 -137.13 -129.11 -115.38 -125.62 -100.62 -123.35 -85.82" fill="url(#uuunion-grad2)" filter="url(#uuunion-blur)"></path><path d="M1380.52 340.44Q1397.64 340.38 1414.77 338.83 1423.33 337.23 1431.89 335.21 1440.45 332.83 1449.02 330.13 1457.58 327.18 1466.14 324.07 1474.7 320.85 1483.27 317.61 1491.83 314.43 1500.39 311.39 1508.95 308.55 1517.51 305.99 1529.09 323.09 1543.63 340.2 1559.9 357.3 1576.54 374.4 1592.14 391.5 1605.37 408.61 1615.13 425.71 1620.59 442.81 1621.28 459.91 1617.15 477.02 1608.54 494.12 1596.2 511.22 1581.14 528.32 1564.66 545.43 1548.14 562.53 1532.97 579.63 1520.44 596.73 1511.61 613.83 1507.22 630.94 1507.64 648.04 1512.84 665.14 1522.37 682.24 1535.44 699.35 1550.94 716.45 1567.56 733.55 1583.89 750.65 1598.56 767.76 1610.33 784.86 1618.2 801.96 1621.51 819.06 1619.97 836.17 1613.73 853.27 1601.03 860.13 1588.32 867.9 1575.62 876.23 1562.92 884.73 1550.21 893.01 1537.51 900.7 1524.81 907.44 1512.11 912.91 1499.4 916.88 1486.7 919.16 1474 919.64 1461.29 918.31 1448.59 915.22 1435.89 910.51 1423.18 904.41 1410.48 897.18 1397.78 889.17 1385.07 880.74 1372.37 872.27 1359.67 864.16 1346.97 856.77 1334.26 850.45 1321.56 845.48 1308.86 842.09 1296.15 840.45 1283.45 840.61 1270.75 842.59 1258.04 846.27 1245.34 851.5 1232.64 858.04 1219.94 865.59 1207.23 873.79 1194.53 882.28 1181.83 890.67 1169.12 898.56 1156.42 905.61 1143.72 911.48 1131.01 915.91 1118.31 918.69 1105.61 919.69 1092.9 918.88 1080.2 916.28 1067.5 912.02 1054.8 906.29 1042.09 899.36 1029.39 891.54 1016.69 883.19 1003.98 874.69 991.28 866.44 978.58 858.8 965.87 852.14 953.17 846.76 940.47 842.9 927.77 840.74 915.06 840.38 902.36 841.84 889.66 845.04 876.95 849.85 864.25 856.04 851.55 863.33 838.84 871.38 826.14 879.83 813.44 888.28 800.74 896.36 788.03 903.69 775.33 909.92 762.63 914.79 749.92 918.06 737.22 919.59 724.52 919.3 711.81 917.21 699.11 913.41 686.41 908.08 673.7 901.47 661 893.86 648.3 885.63 635.6 877.13 622.89 868.77 610.19 860.92 597.49 853.94 584.78 848.16 572.08 843.84 559.38 841.18 546.67 840.3 533.97 841.23 521.27 843.94 508.57 848.31 495.86 854.13 483.16 861.13 470.46 869 457.75 877.38 445.05 885.87 432.35 894.09 419.64 901.67 406.94 908.25 394.24 913.54 381.53 917.29 368.83 919.33 356.13 919.57 343.43 917.99 330.72 914.67 318.02 909.76 305.32 903.49 292.61 896.14 279.91 888.05 267.21 879.59 254.5 871.14 241.8 863.11 229.1 855.85 216.4 849.69 203.69 844.93 190.99 841.77 178.29 840.36 165.58 840.78 152.88 842.99 140.18 846.89 127.47 852.32 114.77 859.01 102.07 866.67 89.36 874.93 76.66 883.43 63.96 891.77 51.26 899.57 38.55 906.48 25.85 912.17 13.15 916.38 -6.37 914.14 -13.78 899.01 -14.03 888.68 -13.91 878.34 -13.44 868 -12.62 857.66 -10.5 842.16 -9.01 837 4.84 829.65 18.7 820.61 32.53 810.02 46.31 798.11 60.01 785.16 73.63 771.51 87.15 757.51 100.56 743.55 113.84 729.98 126.99 717.16 140.01 705.39 152.9 694.91 165.64 685.92 178.26 678.53 190.75 672.78 203.12 668.61 215.39 665.91 227.56 664.5 239.66 664.12 251.68 664.48 263.66 665.26 275.61 666.12 287.55 666.71 299.5 666.71 311.47 665.83 323.48 663.83 335.54 660.52 347.69 655.77 359.92 649.54 372.26 641.84 384.7 632.75 397.27 622.45 409.97 611.13 422.8 599.05 435.76 586.5 448.85 573.8 462.07 561.24 475.41 549.13 488.87 537.74 502.42 527.31 516.06 518.02 529.78 510 543.54 503.32 557.34 497.97 571.15 493.9 584.95 490.98 598.71 489.03 612.42 487.84 626.05 487.15 639.57 486.68 652.97 486.17 666.22 485.32 679.3 483.9 692.19 481.68 704.88 478.47 717.35 474.16 729.6 468.67 741.6 461.97 753.37 454.12 764.89 445.2 776.16 435.37 787.2 424.81 798.01 413.73 808.6 402.39 818.03 397.14 827.44 391.95 836.82 386.94 846.19 382.21 855.53 377.86 864.86 373.99 874.16 370.66 883.45 367.93 892.71 365.85 901.95 364.43 911.18 363.68 920.38 363.58 929.56 364.1 938.73 365.18 947.87 366.76 957 368.74 966.11 371.04 975.19 373.54 984.26 376.15 993.32 378.75 1002.35 381.22 1011.37 383.46 1020.37 385.38 1029.35 386.87 1038.32 387.86 1047.27 388.29 1056.2 388.11 1065.12 387.3 1074.03 385.83 1082.92 383.73 1091.79 381.02 1100.66 377.74 1109.51 373.95 1118.34 369.74 1127.17 365.18 1135.98 360.37 1144.79 355.42 1153.58 350.44 1162.36 345.53 1171.13 340.8 1179.9 336.36 1188.66 332.28 1197.4 328.65 1206.15 325.54 1214.88 323 1223.61 321.07 1241.05 319.38 1258.48 319.48 1267.2 320.47 1275.9 321.92 1284.61 323.74 1293.32 325.83 1302.03 328.1 1310.73 330.45 1319.44 332.77 1328.16 334.96 1336.87 336.92 1345.59 338.56 1363.05 340.29 1380.52 340.44" fill="url(#uuunion-grad3)" filter="url(#uuunion-blur2)"></path></svg>