<svg xmlns="http://www.w3.org/2000/svg" version="1.1" xmlns:xlink="http://www.w3.org/1999/xlink" xmlns:svgjs="http://svgjs.dev/svgjs" viewBox="0 0 1422 800"><defs><filter id="uuunion-blur" x="-100%" y="-100%" width="400%" height="400%" color-interpolation-filters="sRGB">
        <feGaussianBlur in="SourceGraphic" stdDeviation="22 22" result="blur"></feGaussianBlur>
        <feDropShadow stdDeviation="0" in="blur" dx="0" dy="0" flood-color="hsl(0, 0%, 80%)" flood-opacity="0.23" x="0%" y="0%" width="100%" height="100%"></feDropShadow>
      </filter><filter id="uuunion-blur2" x="-100%" y="-100%" width="400%" height="400%" color-interpolation-filters="sRGB">
        <feGaussianBlur in="SourceGraphic" stdDeviation="22 22" result="blur"></feGaussianBlur>
        <feDropShadow stdDeviation="0" in="blur" dx="-0" dy="-0" flood-color="hsl(0, 0%, 80%)" flood-opacity="0.23" x="0%" y="0%" width="100%" height="100%"></feDropShadow>
      </filter><linearGradient gradientTransform="rotate(0, 0.5, 0.5)" x1="50%" y1="0%" x2="50%" y2="100%" id="uuunion-grad"><stop stop-color="hsl(0, 0%, 100%)" offset="10%"></stop><stop stop-color="hsl(0, 0%, 80%)" offset="90%"></stop></linearGradient><linearGradient gradientTransform="rotate(224, 0.5, 0.5)" x1="50%" y1="0%" x2="50%" y2="100%" id="uuunion-grad2"><stop stop-color="hsl(0, 0%, 100%)" offset="25%"></stop><stop stop-color="hsl(0, 0%, 80%)" offset="100%"></stop></linearGradient><linearGradient gradientTransform="rotate(0, 0.5, 0.5)" x1="50%" y1="0%" x2="50%" y2="100%" id="uuunion-grad3"><stop stop-color="hsl(0, 0%, 100%)" offset="0%"></stop><stop stop-color="hsl(0, 0%, 80%)" offset="75%"></stop></linearGradient></defs><path d="M-143.53 -86.96Q-130.19 -85.02 -116.84 -82.85 -103.5 -80.56 -90.15 -78.24 -76.81 -76 -63.46 -73.94 -50.11 -72.14 -36.77 -70.7 -23.42 -69.67 -10.08 -69.1 3.26 -69.02 16.6 -69.43 29.95 -70.31 43.29 -71.62 56.64 -73.31 69.98 -75.29 83.33 -77.48 96.67 -79.79 110.02 -82.1 123.37 -84.32 136.71 -86.35 150.06 -88.09 163.4 -89.48 176.75 -90.44 190.09 -90.93 203.44 -90.94 216.78 -90.45 230.13 -89.51 243.48 -88.13 256.82 -86.4 270.17 -84.38 283.51 -82.16 296.86 -79.85 310.2 -77.54 323.55 -75.34 336.89 -73.35 350.24 -71.66 363.58 -70.34 376.93 -69.45 390.28 -69.03 403.62 -69.1 416.97 -69.65 430.31 -70.67 443.66 -72.1 457 -73.89 470.35 -75.94 483.69 -78.18 497.04 -80.5 510.38 -82.8 523.73 -84.97 537.08 -86.92 550.42 -88.56 563.77 -89.82 577.11 -90.64 590.46 -90.98 603.8 -90.84 617.15 -90.21 630.49 -89.13 643.84 -87.64 657.19 -85.8 670.53 -83.71 683.88 -81.45 697.22 -79.13 710.57 -76.85 723.91 -74.7 737.26 -72.8 750.6 -71.21 763.95 -70.02 777.29 -69.27 790.64 -69 803.99 -69.22 817.33 -69.92 830.68 -71.07 844.02 -72.62 857.37 -74.49 870.71 -76.62 884.06 -78.89 897.4 -81.21 910.75 -83.48 924.1 -85.6 937.44 -87.46 950.79 -88.99 964.13 -90.12 977.48 -90.8 990.82 -90.99 1004.17 -90.7 1017.51 -89.92 1030.86 -88.71 1044.21 -87.11 1057.55 -85.18 1070.9 -83.03 1084.24 -80.74 1097.59 -78.42 1110.93 -76.17 1124.28 -74.09 1137.62 -72.27 1150.97 -70.8 1164.32 -69.74 1177.66 -69.13 1191.01 -69.01 1204.35 -69.38 1217.7 -70.22 1231.04 -71.5 1244.39 -73.16 1257.73 -75.12 1271.08 -77.3 1284.43 -79.6 1297.77 -81.92 1311.12 -84.15 1324.46 -86.2 1337.81 -87.97 1351.15 -89.38 1364.5 -90.38 1377.84 -90.91 1391.19 -90.95 1404.54 -90.51 1417.88 -89.6 1431.23 -88.26 1444.57 -86.55 1457.92 -84.54 1471.26 -82.34 1484.61 -80.03 1497.95 -77.72 1511.3 -75.51 1524.65 -73.5 1537.99 -71.78 1551.34 -70.43 1564.68 -69.5 1564.76 -54.68 1564.74 -39.86 1564.65 -25.04 1564.48 -10.22 1564.27 4.6 1564.05 19.42 1563.85 34.24 1563.7 49.06 1563.63 63.88 1563.65 78.7 1563.75 93.52 1563.92 108.34 1564.13 123.16 1564.35 137.99 1564.55 152.81 1564.69 167.63 1564.76 182.45 1564.74 197.27 1564.63 212.09 1564.46 226.91 1564.25 241.73 1564.03 256.55 1563.83 271.38 1563.69 286.2 1563.63 301.02 1563.65 315.84 1563.76 330.66 1563.93 345.48 1564.15 360.3 1564.37 375.12 1564.56 389.94 1564.7 404.77 1564.76 419.59 1564.73 434.41 1564.62 449.23 1564.45 464.05 1564.23 478.87 1564.01 493.69 1563.82 508.51 1563.69 523.33 1563.63 538.16 1563.66 552.98 1563.77 567.8 1563.95 582.62 1564.17 597.44 1564.39 612.26 1564.58 627.08 1564.71 641.9 1564.76 656.72 1564.73 671.55 1564.61 686.37 1564.43 701.19 1564.21 716.01 1563.99 730.83 1563.81 745.65 1563.68 760.47 1563.63 775.29 1563.67 790.11 1563.79 804.94 1563.97 819.76 1564.19 834.58 1564.4 849.4 1564.59 864.22 1564.72 879.04 1551.37 879.13 1538.02 879.25 1524.68 879.4 1511.33 879.59 1497.98 879.79 1484.64 880 1471.29 880.21 1457.94 880.41 1444.6 880.59 1431.25 880.75 1417.9 880.87 1404.56 880.95 1391.21 880.99 1377.86 880.99 1364.52 880.94 1351.17 880.85 1337.82 880.72 1324.48 880.56 1311.13 880.37 1297.78 880.17 1284.44 879.96 1271.09 879.75 1257.75 879.55 1244.4 879.37 1231.05 879.22 1217.71 879.11 1204.36 879.03 1191.01 879 1177.67 879.01 1164.32 879.06 1150.97 879.16 1137.63 879.29 1124.28 879.46 1110.93 879.65 1097.59 879.85 1084.24 880.06 1070.89 880.27 1057.55 880.47 1044.2 880.64 1030.85 880.79 1017.51 880.9 1004.16 880.97 990.81 880.99 977.47 880.98 964.12 880.92 950.77 880.81 937.43 880.67 924.08 880.5 910.74 880.31 897.39 880.11 884.04 879.89 870.7 879.69 857.35 879.49 844 879.32 830.66 879.18 817.31 879.08 803.96 879.02 790.62 879 777.27 879.02 763.92 879.09 750.58 879.2 737.23 879.34 723.88 879.51 710.54 879.71 697.19 879.92 683.84 880.13 670.5 880.33 657.15 880.52 643.81 880.69 630.46 880.83 617.11 880.92 603.77 880.98 590.42 880.99 577.07 880.96 563.73 880.89 550.38 880.77 537.03 880.62 523.69 880.45 510.34 880.25 496.99 880.04 483.65 879.83 470.3 879.63 456.95 879.44 443.61 879.28 430.26 879.15 416.92 879.05 403.57 879 390.22 879 376.88 879.04 363.53 879.12 350.18 879.24 336.84 879.39 323.49 879.57 310.14 879.77 296.8 879.98 283.45 880.19 270.1 880.39 256.76 880.58 243.41 880.73 230.06 880.86 216.72 880.95 203.37 880.99 190.03 880.99 176.68 880.94 163.33 880.86 149.99 880.73 136.64 880.57 123.29 880.39 109.95 880.19 96.6 879.98 83.25 879.77 69.91 879.57 56.56 879.39 43.21 879.23 29.87 879.11 16.52 879.03 3.18 879 -10.16 879 -23.51 879.06 -36.85 879.15 -50.2 879.28 -63.55 879.44 -76.89 879.63 -90.24 879.84 -103.59 880.05 -116.93 880.25 -130.28 880.45 -143.63 880.63 -143.28 865.51 -142.76 850.39 -142.16 835.27 -141.56 820.15 -141.05 805.03 -140.72 789.92 -140.62 774.8 -140.75 759.68 -141.11 744.56 -141.63 729.44 -142.24 714.32 -142.84 699.2 -143.33 684.08 -143.65 668.97 -143.75 653.85 -143.6 638.73 -143.24 623.61 -142.71 608.49 -142.11 593.37 -141.51 578.25 -141.02 563.13 -140.71 548.02 -140.62 532.9 -140.78 517.78 -141.15 502.66 -141.68 487.54 -142.29 472.42 -142.88 457.3 -143.37 442.18 -143.67 427.06 -143.75 411.95 -143.58 396.83 -143.2 381.71 -142.67 366.59 -142.06 351.47 -141.47 336.35 -140.99 321.23 -140.69 306.11 -140.62 291 -140.8 275.88 -141.19 260.76 -141.73 245.64 -142.34 230.52 -142.93 215.4 -143.4 200.28 -143.69 185.16 -143.74 170.05 -143.56 154.93 -143.16 139.81 -142.62 124.69 -142 109.57 -141.42 94.45 -140.95 79.33 -140.68 64.21 -140.63 49.09 -140.82 33.98 -141.23 18.86 -141.78 3.74 -142.39 -11.37 -142.97 -26.49 -143.43 -41.61 -143.7 -56.73 -143.74 -71.85 -143.53 -86.96" fill="url(#uuunion-grad)"></path><path d="M-143.54 -86.97Q-143.75 -71.85 -143.71 -56.73 -143.44 -41.61 -142.98 -26.49 -142.4 -11.37 -141.79 3.74 -141.24 18.86 -140.83 33.97 -140.64 49.09 -140.69 64.21 -140.96 79.33 -141.43 94.45 -142.01 109.57 -142.63 124.69 -143.17 139.81 -143.57 154.93 -143.75 170.04 -143.7 185.16 -143.41 200.28 -142.94 215.4 -142.35 230.52 -141.74 245.64 -141.2 260.76 -140.81 275.88 -140.63 290.99 -140.7 306.11 -141 321.23 -141.48 336.35 -142.07 351.47 -142.68 366.59 -143.21 381.71 -143.59 396.83 -134.69 397.4 -125.8 398.03 -116.9 398.69 -108 399.39 -99.11 400.09 -90.21 400.79 -81.31 401.48 -72.41 402.13 -63.52 402.75 -54.62 403.31 -45.72 403.8 -36.82 404.22 -27.93 404.55 -19.03 404.8 -2.21 404.98 0.75 404.99 11.91 401.8 23.08 398.45 34.25 394.96 45.43 391.32 56.62 387.55 67.8 383.67 78.99 379.71 90.19 375.69 101.38 371.63 112.58 367.56 123.77 363.52 134.97 359.53 146.16 355.62 157.36 351.81 168.55 348.14 179.73 344.61 190.92 341.24 202.09 338.05 213.27 335.04 224.43 332.2 235.6 329.53 246.75 327.01 257.9 324.64 269.04 322.39 280.18 320.23 291.31 318.13 302.43 316.07 313.54 314 324.65 311.9 335.75 309.74 346.84 307.48 357.93 305.09 369.01 302.56 380.08 299.85 391.15 296.96 402.21 293.88 413.27 290.59 424.32 287.11 435.37 283.44 446.41 279.6 457.46 275.61 468.49 271.49 479.53 267.28 490.57 262.99 501.6 258.68 512.63 254.38 523.66 250.12 534.7 245.94 545.73 241.88 556.76 237.96 567.8 234.21 578.84 230.66 589.88 227.31 600.92 224.18 611.97 221.27 623.02 218.58 634.07 216.09 645.13 213.79 656.19 211.65 667.26 209.65 678.33 207.74 689.4 205.9 700.48 204.09 711.56 202.25 722.65 200.36 733.74 198.38 744.83 196.26 755.93 193.98 767.03 191.5 778.14 188.81 789.24 185.89 800.35 182.73 811.46 179.32 822.58 175.68 833.69 171.83 844.81 167.76 855.93 163.53 867.05 159.16 878.17 154.68 889.29 150.14 900.41 145.59 911.53 141.06 922.65 136.6 933.76 132.25 944.88 128.05 955.99 124.04 967.1 120.25 978.22 116.69 989.32 113.39 1000.43 110.35 1011.53 107.58 1022.64 105.05 1033.73 102.77 1044.83 100.69 1055.93 98.8 1067.02 97.06 1078.11 95.42 1089.2 93.83 1100.28 92.26 1111.37 90.65 1122.45 88.95 1133.53 87.13 1144.61 85.13 1155.69 82.93 1166.77 80.49 1177.85 77.78 1188.93 74.8 1200.01 71.53 1211.09 67.98 1222.17 64.16 1233.25 60.09 1244.33 55.79 1255.42 51.3 1266.5 46.67 1277.59 41.93 1288.68 37.13 1299.78 32.34 1310.87 27.59 1321.97 22.94 1333.07 18.45 1344.18 14.14 1355.29 10.07 1366.4 6.25 1377.51 2.73 1388.63 -0.49 1399.75 -3.41 1410.87 -6.03 1422 -8.36 1422.17 -26.04 1422.3 -43.72 1422.38 -61.41 1422.37 -79.09 1422.28 -96.77 1422.14 -114.46 1421.96 -132.14 1421.79 -149.82 1409.49 -150.89 1397.19 -151.53 1384.88 -151.74 1372.58 -151.51 1360.27 -150.83 1347.97 -149.74 1335.66 -148.28 1323.36 -146.51 1311.05 -144.49 1298.75 -142.29 1286.44 -140.01 1274.14 -137.73 1261.84 -135.53 1249.53 -133.51 1237.23 -131.73 1224.92 -130.26 1212.62 -129.17 1200.31 -128.49 1188.01 -128.25 1175.7 -128.45 1163.4 -129.09 1151.09 -130.15 1138.79 -131.59 1126.48 -133.34 1114.18 -135.35 1101.88 -137.53 1089.57 -139.81 1077.27 -142.09 1064.96 -144.3 1052.66 -146.34 1040.35 -148.14 1028.05 -149.63 1015.74 -150.75 1003.44 -151.47 991.13 -151.74 978.83 -151.57 966.53 -150.96 954.22 -149.93 941.92 -148.52 929.61 -146.79 917.31 -144.8 905 -142.63 892.7 -140.35 880.39 -138.07 868.09 -135.85 855.78 -133.8 843.48 -131.97 831.18 -130.46 818.87 -129.31 806.57 -128.56 794.26 -128.25 781.96 -128.39 769.65 -128.97 757.35 -129.97 745.04 -131.35 732.74 -133.06 720.43 -135.03 708.13 -137.2 695.83 -139.47 683.52 -141.75 671.22 -143.98 658.91 -146.05 646.61 -147.89 634.3 -149.43 622 -150.61 609.69 -151.39 597.39 -151.73 585.08 -151.63 572.78 -151.08 560.48 -150.11 548.17 -148.76 535.87 -147.07 523.56 -145.11 511.26 -142.96 498.95 -140.7 486.65 -138.41 474.34 -136.17 462.04 -134.09 449.73 -132.23 437.43 -130.66 425.13 -129.46 412.82 -128.65 400.52 -128.27 388.21 -128.34 375.91 -128.86 363.6 -129.79 351.3 -131.12 338.99 -132.79 326.69 -134.72 314.38 -136.86 302.08 -139.12 289.78 -141.41 277.47 -143.65 265.17 -145.75 252.86 -147.63 240.56 -149.22 228.25 -150.46 215.95 -151.3 203.64 -151.71 191.34 -151.67 179.03 -151.19 166.73 -150.28 154.43 -148.98 142.12 -147.34 129.82 -145.42 117.51 -143.29 105.21 -141.04 92.9 -138.75 80.6 -136.5 68.29 -134.39 55.99 -132.49 43.68 -130.88 31.38 -129.61 19.08 -128.74 6.77 -128.3 -5.52 -128.3 -17.83 -128.75 -30.13 -129.63 -42.44 -130.9 -54.74 -132.52 -67.05 -134.42 -79.35 -136.53 -91.66 -138.78 -103.96 -141.07 -116.26 -143.32 -128.57 -145.45 -145.84 -140.43 -148.48 -117.99 -146.08 -102.48 -143.54 -86.97" fill="url(#uuunion-grad2)" filter="url(#uuunion-blur)"></path><path d="M1421.67 314.98Q1430.55 315.49 1439.42 316.09 1448.3 316.77 1457.18 317.51 1466.06 318.31 1474.94 319.13 1483.81 319.98 1492.69 320.82 1501.57 321.65 1510.45 322.44 1519.33 323.19 1528.2 323.87 1537.08 324.48 1545.96 324.99 1554.84 325.41 1563.72 325.72 1563.9 343.01 1564.15 360.3 1564.4 377.59 1564.62 394.88 1564.74 412.18 1564.75 429.47 1564.65 446.76 1564.45 464.05 1564.2 481.34 1563.94 498.63 1563.74 515.92 1563.64 533.22 1563.65 550.51 1563.77 567.8 1563.99 585.09 1564.24 602.38 1564.49 619.67 1564.67 636.96 1564.76 654.25 1564.73 671.55 1564.58 688.84 1564.36 706.13 1564.1 723.42 1563.86 740.71 1563.69 758 1563.63 775.29 1563.68 792.58 1563.84 809.88 1564.07 827.17 1564.33 844.46 1564.56 861.75 1564.72 879.04 1552.47 879.12 1540.23 879.23 1527.99 879.36 1515.75 879.52 1503.5 879.7 1491.26 879.89 1479.02 880.09 1466.78 880.28 1454.54 880.46 1442.29 880.62 1430.05 880.76 1417.81 880.87 1405.57 880.95 1393.33 880.99 1381.08 880.99 1368.84 880.96 1356.6 880.89 1344.36 880.79 1332.11 880.65 1319.87 880.5 1307.63 880.32 1295.39 880.13 1283.15 879.94 1270.9 879.75 1258.66 879.57 1246.42 879.4 1234.18 879.26 1221.93 879.14 1209.69 879.06 1197.45 879.01 1185.21 879 1172.97 879.02 1160.72 879.08 1148.48 879.18 1136.24 879.31 1124 879.46 1111.76 879.64 1099.51 879.82 1087.27 880.01 1075.03 880.21 1062.79 880.39 1050.54 880.56 1038.3 880.71 1026.06 880.83 1013.82 880.92 1001.58 880.98 989.33 880.99 977.09 880.98 964.85 880.92 952.61 880.83 940.36 880.71 928.12 880.56 915.88 880.39 903.64 880.2 891.4 880.01 879.15 879.82 866.91 879.63 854.67 879.46 842.43 879.31 830.19 879.18 817.94 879.08 805.7 879.02 793.46 879 781.22 879.01 768.97 879.06 756.73 879.14 744.49 879.26 732.25 879.4 720.01 879.57 707.76 879.75 695.52 879.94 683.28 880.14 671.04 880.32 658.79 880.5 646.55 880.66 634.31 880.79 622.07 880.89 609.83 880.96 597.58 880.99 585.34 880.99 573.1 880.94 560.86 880.87 548.61 880.76 536.37 880.62 524.13 880.45 511.89 880.27 499.65 880.08 487.4 879.89 475.16 879.7 462.92 879.52 450.68 879.36 438.44 879.22 426.19 879.11 413.95 879.04 401.71 879 389.47 879 377.22 879.03 364.98 879.11 352.74 879.21 340.5 879.35 328.26 879.5 316.01 879.68 303.77 879.87 291.53 880.06 279.29 880.26 267.04 880.44 254.8 880.6 242.56 880.74 230.32 880.86 218.08 880.94 205.83 880.98 193.59 880.99 181.35 880.96 169.11 880.9 156.87 880.8 144.62 880.67 132.38 880.52 120.14 880.34 107.9 880.15 95.65 879.96 83.41 879.77 71.17 879.59 58.93 879.42 46.69 879.27 34.44 879.15 22.2 879.06 3.93 874.07 -1.83 859.25 -1.51 849.37 -1.15 839.5 -0.79 829.62 -0.44 819.75 0.24 804.93 1.12 800 13.72 793.82 26.29 787.64 38.82 781.44 51.32 775.21 63.78 768.96 76.21 762.67 88.61 756.34 100.97 749.98 113.32 743.6 125.65 737.18 137.96 730.75 150.27 724.32 162.57 717.89 174.88 711.47 187.19 705.09 199.52 698.75 211.87 692.45 224.23 686.22 236.63 680.04 249.04 673.94 261.49 667.89 273.96 661.91 286.47 655.98 299 650.09 311.55 644.22 324.13 638.37 336.74 632.51 349.35 626.63 361.99 620.7 374.63 614.71 387.27 608.65 399.92 602.49 412.57 596.23 425.21 589.87 437.83 583.4 450.45 576.83 463.04 570.16 475.62 563.41 488.18 556.6 500.72 549.74 513.23 542.86 525.73 535.98 538.2 529.14 550.66 522.35 563.1 515.65 575.53 509.06 587.94 502.59 600.35 496.26 612.75 490.08 625.15 484.06 637.55 478.18 649.96 472.45 662.37 466.83 674.79 461.32 687.21 455.89 699.65 450.5 712.11 445.12 724.58 439.72 737.06 434.25 749.55 428.69 762.06 423.01 774.58 417.17 787.11 411.16 799.65 404.95 809.38 403.56 819.12 402.05 828.85 400.43 838.59 398.7 848.32 396.89 858.06 395 867.79 393.04 877.53 391.04 887.26 389 897 386.96 906.73 384.92 916.46 382.92 926.19 380.95 935.93 379.05 945.66 377.23 955.39 375.5 965.12 373.87 974.85 372.36 984.58 370.96 994.31 369.7 1004.04 368.56 1013.76 367.54 1023.49 366.64 1033.22 365.86 1042.94 365.18 1052.66 364.58 1062.39 364.06 1072.11 363.59 1081.83 363.16 1091.55 362.76 1101.28 362.34 1111 361.91 1120.71 361.44 1130.43 360.91 1140.15 360.3 1149.87 359.59 1159.58 358.78 1169.3 357.86 1179.01 356.8 1188.72 355.62 1198.44 354.3 1208.15 352.85 1217.86 351.27 1227.57 349.57 1237.28 347.76 1246.99 345.84 1256.7 343.85 1266.41 341.79 1276.11 339.68 1285.82 337.54 1295.53 335.4 1305.23 333.28 1314.94 331.19 1324.64 329.15 1334.34 327.2 1344.05 325.33 1353.75 323.57 1363.45 321.94 1373.16 320.43 1382.86 319.06 1392.56 317.83 1402.26 316.75 1411.97 315.8 1421.67 314.98" fill="url(#uuunion-grad3)" filter="url(#uuunion-blur2)"></path></svg>